<svg width="55" height="54" viewBox="0 0 55 54" fill="none" xmlns="http://www.w3.org/2000/svg">
<path d="M27.5 52.6946C42.6878 52.6946 55 40.8985 55 26.3473C55 11.7961 42.6878 0 27.5 0C12.3122 0 0 11.7961 0 26.3473C0 40.8985 12.3122 52.6946 27.5 52.6946Z" fill="#3B5998"/>
<path d="M30.4688 53.4611V33.7006H37.3438L39.0625 25.4671H30.4688V22.1737C30.4688 18.8802 32.1909 17.2335 35.625 17.2335H39.0625V9C37.3438 9 35.2125 9 32.1875 9C25.8711 9 21.875 13.7442 21.875 20.5269V25.4671H15V33.7006H21.875V53.4611H30.4688Z" fill="white"/>
</svg>
